***************************************************************
 
http://www.torrentforce.org/imghost/3/greyshadow_tfbanner.png

***************************************************************
 
http://www.torrentforce.org/imghost/4/greyshadow_abetterlife.jpg

***************************************************************

FILM TITLE: A Better Life (2011)

***************************************************************

Genre: Drama   

Rated PG-13 for some violence, language and brief drug use

Release: 29 July 2011 (Ireland)

Director: Chris Weitz

Writer: Eric Eason (screenplay), Roger L. Simon (story)

Stars: Demián Bichir, José Julián and Eddie 'Piolin' Sotelo 

Country: USA

Language: English

Plot:
A gardener in East L.A. struggles to keep his son away from gangs 
and immigration agents while trying to give his son the opportunities 
he never had.

IMDB Rating: 6.2/10 from 530 users   Metascore: 64/100  
 
http://www.imdb.com/title/tt1554091/ 

****************************************************************
 
http://www.torrentforce.org/imghost/4/greyshadow_abetterlifexvid113izf1ege.png 
http://www.torrentforce.org/imghost/4/greyshadow_abetterlifexvid2.png 
http://www.torrentforce.org/imghost/4/greyshadow_abetterlifexvid3.png 
http://www.torrentforce.org/imghost/4/greyshadow_abetterlifexvid4.png

****************************************************************

[IMG]http://www.torrentforce.org/imghost/2/greyshadow_mediainfo.png[/IMG]
General
Complete name                    : A Better Life 2011 720p BDRip XviD ac3 (avi) [TFRG].avi
Format                           : AVI
Format/Info                      : Audio Video Interleave
Format profile                   : OpenDML
File size                        : 2.27 GiB
Duration                         : 1h 37mn
Overall bit rate                 : 3330 Kbps
Writing library                  : VirtualDub build 32842/release

Video
ID                               : 0
Format                           : MPEG-4 Visual
Format profile                   : Simple@L5
Format settings, BVOP            : No
Format settings, QPel            : No
Format settings, GMC             : No warppoints
Format settings, Matrix          : Default (H.263)
Codec ID                         : XVID
Codec ID/Hint                    : XviD
Duration                         : 1h 37mn
Bit rate                         : 2 998 Kbps
Width                            : 1280 pixels
Height                           : 720 pixels
Display aspect ratio             : 16:9
Frame rate                       : 23.976 fps
Color space                      : YUV
Chroma subsampling               : 4:2:0
Bit depth                        : 8 bits
Scan type                        : Progressive
Compression mode                 : Lossy
Bits/(Pixel*Frame)               : 0.136
Stream size                      : 2.04 GiB (90%)
Writing library                  : XviD 64

Audio
ID                               : 1
Format                           : AC-3
Format/Info                      : Audio Coding 3
Mode extension                   : CM (complete main)
Codec ID                         : 2000
Duration                         : 1h 37mn
Bit rate mode                    : Constant
Bit rate                         : 320 Kbps
Channel(s)                       : 6 channels
Channel positions                : Front: L C R, Side: L R, LFE
Sampling rate                    : 48.0 KHz
Bit depth                        : 16 bits
Compression mode                 : Lossy
Stream size                      : 223 MiB (10%)
Alignment                        : Aligned on interleaves
Interleave, duration             : 42 ms (1.00 video frame)
Interleave, preload duration     : 512 ms

Subtitle: English For Foreign Parts (hard subbed)

****************************************************************

Video Source: A Better Life 2011 BluRay 1080p AVC DTS-HD MA5.1-CHDBits (22.8GB)

Thanks: (chdbits.org)

****************************************************************

I provide a small sample, so please download this to check your 
compatibility first if you are unsure.

****************************************************************

7th October 2011

I am re-introducing my warning to all downloaders, please please
please use a proxy or vpn service, it is the only secure way to
keep your own ip address from being seen during downloading or
uploading/seeding, this WILL stop isp letters, as for advice to 
which one then thats simple, vpntunnel.se server based in Sweden 
is the right one to use, I will be canceling my vpn and transfering 
to a Swedish one immediately !!! enough said. 

****************************************************************

A big thanks to all the sites out there who care and share and
who make it possible for you to download this torrent for free.

Greetz to Westy, Ripwyn, mustang, noir, Blackjesus, MXMG, The Stig 
and all the other outstanding members of our community of file 
sharers and a special mention to our friends at 1337x.

****************************************************************